<svg width="100" height="18" viewBox="0 0 100 18" fill="none" xmlns="http://www.w3.org/2000/svg">
<path fill-rule="evenodd" clip-rule="evenodd" d="M29.7433 17.2321H34.5084V1.14688H29.7433V2.83752H29.6957C29.1238 1.82314 27.6943 0.56723 25.0735 0.56723C20.8326 0.56723 17.0681 3.90021 17.0681 9.16536C17.0681 13.7542 20.0225 17.7635 25.0735 17.7635C26.9319 17.7635 28.8856 17.0389 29.6957 15.4932H29.7433V17.2321ZM29.7433 9.16491C29.7433 10.7106 28.7426 13.2708 25.7882 13.2708C22.9292 13.2708 21.8332 10.7106 21.8332 9.21321C21.8332 7.37766 23.0245 5.05906 25.7406 5.05906C28.4091 5.05906 29.7433 7.23274 29.7433 9.16491Z" fill="#212121"/>
<path d="M46.6118 17.1838H41.8467L36.4144 1.09854H41.1795L44.2292 11.1458H44.2769L47.4695 1.09854H52.2346L46.6118 17.1838Z" fill="#212121"/>
<path fill-rule="evenodd" clip-rule="evenodd" d="M64.7667 16.2657C66.101 15.3479 67.2446 13.9471 68.007 12.1598V12.1115H63.1466C62.4795 12.9327 61.7171 13.609 60.2399 13.609C58.3815 13.609 56.809 12.498 56.5231 10.5658H68.4359C68.4391 10.5432 68.4422 10.5207 68.4454 10.4984C68.4897 10.1873 68.5312 9.8958 68.5312 9.3099C68.5312 4.38288 64.9573 0.518555 60.1446 0.518555C55.2842 0.518555 51.8056 4.67271 51.8056 9.16499C51.8056 13.9954 55.713 17.7148 60.2399 17.7148C61.86 17.7148 63.4325 17.2318 64.7667 16.2657ZM60.1922 4.62405C62.67 4.62405 63.623 6.4113 63.8136 7.37739H56.5707C56.8089 6.4113 57.7143 4.62405 60.1922 4.62405Z" fill="#212121"/>
<path d="M75.9171 1.0982H80.3486V2.78885H80.3963C80.7775 2.01598 81.6352 0.518555 84.3513 0.518555V5.34896C82.1594 5.39727 80.6346 5.88031 80.6346 8.29551V17.1352H75.8694V1.0982H75.9171Z" fill="#212121"/>
<path d="M93.9294 5.63916C93.8817 5.30103 93.8341 4.43156 92.4522 4.43156C91.4515 4.43156 91.1179 5.05951 91.1179 5.49425C91.1179 6.36372 92.3092 6.84676 93.5481 7.23319C96.2166 8.00606 99.1233 8.77892 99.1233 12.2568C99.1233 15.6381 96.169 17.7635 92.6428 17.7635C90.2602 17.7635 86.5911 16.6525 86.1622 12.4017H90.8797C91.0703 13.8992 92.4998 13.8992 92.6904 13.8992C93.5005 13.8992 94.3582 13.4161 94.3582 12.6433C94.3582 11.3873 93.1669 11.2424 90.1649 10.0831C88.1159 9.40688 86.4005 8.05436 86.4005 5.88068C86.4005 2.69261 89.2596 0.56723 92.5475 0.56723C94.6441 0.56723 98.2656 1.3884 98.6468 5.63916H93.9294Z" fill="#212121"/>
<path d="M13.3512 1.96756C12.4935 1.19469 10.8257 0.566742 9.30084 0.566742C6.48942 0.566742 5.86996 2.06417 5.39345 2.83703H5.3458V1.14639H0.914246V17.2316H5.67935V7.42592C5.67935 6.70136 5.96526 6.07341 6.44177 5.63867C6.48942 5.59037 6.53707 5.54206 6.58473 5.54206C6.63238 5.49376 6.68003 5.44545 6.72768 5.44545H6.77533C7.15654 5.20393 7.5854 5.05902 8.06191 5.05902C8.68137 5.05902 9.20554 5.30054 9.6344 5.68697C10.1109 6.12171 10.4445 6.74966 10.4445 7.47423V8.10218C10.4445 8.19879 10.4445 8.3437 10.4445 8.44031V17.2316H15.2096V7.1361C15.2096 3.99633 14.2089 2.69212 13.3512 1.96756Z" fill="#212121"/>
<path d="M71.6284 17.2315C70.2942 17.2315 69.2458 16.1688 69.2458 14.8163C69.2458 13.4638 70.2942 12.4011 71.6284 12.4011C72.9626 12.4011 74.011 13.4638 74.011 14.8163C74.011 16.1205 72.9626 17.2315 71.6284 17.2315Z" fill="#212121"/>
</svg>
